<svg width="96" height="96" xmlns="http://www.w3.org/2000/svg" xmlns:xlink="http://www.w3.org/1999/xlink" xml:space="preserve" overflow="hidden"><g><path d="M40.91 34 23.91 34 23.91 46 40.91 46ZM38.91 44 25.91 44 25.91 36 38.91 36Z"/><path d="M44.91 70 61.91 70 61.91 58 44.91 58ZM46.91 60 59.91 60 59.91 68 46.91 68Z"/><path d="M23.91 27 61.91 27 61.91 29 23.91 29Z"/><path d="M23.91 51 61.91 51 61.91 53 23.91 53Z"/><path d="M44.91 35 61.91 35 61.91 37 44.91 37Z"/><path d="M44.91 43 61.91 43 61.91 45 44.91 45Z"/><path d="M23.91 59 40.91 59 40.91 61 23.91 61Z"/><path d="M23.91 67 40.91 67 40.91 69 23.91 69Z"/><path d="M69.91 22 69.91 16 15.91 16 15.91 74C15.9144 77.8642 19.0458 80.9956 22.91 81L73.91 81C77.2221 80.9961 79.9061 78.3121 79.91 75L79.91 22ZM17.91 74 17.91 18 67.91 18 67.91 75C67.9104 76.478 68.4591 77.9033 69.45 79L22.91 79C20.1499 78.9967 17.9133 76.7601 17.91 74ZM77.91 75C77.91 77.2091 76.1191 79 73.91 79 71.7009 79 69.91 77.2091 69.91 75L69.91 24 77.91 24Z"/></g></svg>